<svg width="330" height="100" data-text="Brand Loyalty" viewBox="0 0 330.45 99.64" xmlns="http://www.w3.org/2000/svg" xml:space="preserve">
<path fill="#F0524F" d="M330.06,36.44c-4.67-22.95-29.58-4.77-44.27-6.79c-2.4,0-4.87-0.01-7.27-0.02c-44.95-1.51-82.96-35-129.2-28.88
	C112.19,0.66,74.44,0.57,37.32,0.49C7.24-1.95-2.88,15.29,0.68,43.31c0.64,12.97-1.59,26.74,1.11,39.44
	c10.25,23.14,41.02,14.76,61.16,16.38c19.72,0.04,40.59,0.09,60.31,0.13c10.81,0.02,23.66,0.05,34.46,0.07
	c44.77,3.93,81.96-30.83,126.56-28.31c11.06-1.17,21.13,4.11,31.72,5.4C336.5,75.93,328.75,49.9,330.06,36.44z"/>
</svg>
