<svg width="241" height="132" data-text="Sales and Market Share" viewBox="0 0 241 132.3" xmlns="http://www.w3.org/2000/svg" xml:space="preserve">
<path fill="#CF80B5" d="M241,100.3c-1.6-4.7-7.2-7.4-10.3-11.1c2.9-2.8,5.9-5.7,8.8-8.4c7.1-7.8-15.2-12.2-5.7-17.9
	c12.5-9.3,4.9-11.9-3.5-20c8.5-8.4,15.8-10.8,2.8-20.4c-5.6-3.7-2.9-5.8,0.8-9.2c15-14-7.5-13.3-18.7-13.3C205,0,203.1,6.8,186,6.8
	c-42.2,0-120.7,0.4-139.4,0.4c-12.3,0-20.9-7-34-7c-17.8,0-9,10.3-2.3,18.1c2.6,2.4-3.4,4.9-4.8,7.1c-15.8,11.3,12.7,14.3,2.1,21.3
	C-4.9,56,2.7,58.5,11,66.7C6.7,71.4-4.7,77.6,4.5,83.6c1.9,2.8,9.4,5.6,4.5,8.4c-10.6,9-10.2,10.3,0.4,19.3
	c8.9,5.9-33.9,20.8,12.8,20.8c9.9,0,20.4-6.2,33.9-6.2c29.6,0,53.9-0.2,83.5-0.3c17,0,33.3,0,50.3,0c16.4,0,21.9,6.9,33.6,6.9
	c26.4,0.2,13.2-11.9,6.9-19.6C233.6,108.7,240.4,105.8,241,100.3z"/>
</svg>
