<svg width="216" height="207" data-text="Loyalty Program Subscribers" viewBox="0 0 215.63 207.32" xmlns="http://www.w3.org/2000/svg" xml:space="preserve">
    <path fill="#FCCC2E" d="M215.58 80.4c-2.4-20.84-28.66-18.39-43.85-23.9-14.36-2.08-24.24-6.78-30.79-20.3C123.16 7.08 105-21.58 81.95 23.39 70.39 41.5 67.18 55.64 43.25 58.86c-30.42 6.93-62.07 16.25-29.54 49.3 7.85 11.74 23.59 20.99 24.1 36.11-3.52 63.77-5.88 78.21 60.12 47.67 30.76-17.91 96.78 61.02 83.63-33.82-.43-10.74-4.25-23.29 4.48-31.82 7.87-12.75 30.8-31.61 29.54-45.9z" />
</svg>